# xmcd
#
# Track frame offsets:
#	150
#	14520
#	34585
#	49555
#	65750
#	83687
#	98237
#	112215
#	124990
#	139415
#	156705
#
# Disc length: 2275 seconds
#
# Revision: 0
# Processed by: cddbd v1.5.1PL0 Copyright (c) Steve Scherf et al.
# Submitted via: dBpowerAMP V4.0
#
DISCID=a008e10b
DTITLE=Greenfields - A Hobo By My Side
DYEAR=1900
DGENRE=Country
TTITLE0=Stay Away
TTITLE1=Broken Heart
TTITLE2=Who´s That Guy Called Tom T. Hall
TTITLE3=Riverboat Queen
TTITLE4=Moonlight Rider
TTITLE5=San Bernardino
TTITLE6=Come Home With Me Tonight
TTITLE7=Baby´s Gone
TTITLE8=Rolling Down
TTITLE9=What A Wonderful World
TTITLE10=Hobo Blues
EXTD=
EXTT0=
EXTT1=
EXTT2=
EXTT3=
EXTT4=
EXTT5=
EXTT6=
EXTT7=
EXTT8=
EXTT9=
EXTT10=
PLAYORDER=
